<?xml version="1.0" encoding="UTF-8" standalone="no"?>
<svg
   xmlns:vectornator="http://vectornator.io"
   xmlns:dc="http://purl.org/dc/elements/1.1/"
   xmlns:cc="http://creativecommons.org/ns#"
   xmlns:rdf="http://www.w3.org/1999/02/22-rdf-syntax-ns#"
   xmlns:svg="http://www.w3.org/2000/svg"
   xmlns="http://www.w3.org/2000/svg"
   id="svg3773"
   viewBox="0 0 104.30762 97.410744"
   version="1.1"
   width="104.30762"
   xml:space="preserve"
   style="clip-rule:evenodd;fill-rule:evenodd;stroke-linecap:round;stroke-linejoin:round"
   height="97.410744">
<metadata
   id="metadata3764">
<vectornator:setting
   value="1"
   key="RulersVisible" />
<vectornator:setting
   value="0"
   key="OutlineMode" />
<vectornator:setting
   value="Millimeters"
   key="Units" />
<vectornator:setting
   value="1"
   key="DynamicGuides" />
<vectornator:setting
   value="0"
   key="IsolateActiveLayer" />
<vectornator:setting
   value="1"
   key="SnapToGuides" />
<vectornator:setting
   value="0"
   key="ShowGrid" />
<vectornator:setting
   value="36"
   key="GridSpacing" />
<rdf:RDF><cc:Work
     rdf:about=""><dc:format>image/svg+xml</dc:format><dc:type
       rdf:resource="http://purl.org/dc/dcmitype/StillImage" /><dc:title></dc:title></cc:Work></rdf:RDF></metadata>
<defs
   id="defs3766" />
<g
   transform="translate(-233.73956,-330.48952)"
   vectornator:layerName="layer1"
   id="layer1">
<path
   style="opacity:1;fill:#000000"
   id="path3768"
   d="m 247.367,426.369 c -2.297,-1.472 -7.442,-7.633 -9.162,-10.971 -2.109,-4.093 -5.404,-29.388 -4.213,-32.339 0.284,-0.703 0.792,-3.302 1.129,-5.778 2.23,-16.347 3.128,-20.331 6.152,-27.297 3.48,-8.018 6.876,-13.335 8.933,-13.988 4.417,-1.402 13.767,10.71 16.021,20.754 0.59,2.628 2.309,9.336 3.82,14.905 1.511,5.57 2.736,10.633 2.724,11.252 -0.022,1.098 -1.606,10.97 -3.171,19.769 -0.927,5.213 -4.846,14.651 -7.241,17.438 -2.929,3.408 -6.407,5.548 -9.017,5.548 -1.364,0 -2.48,-0.337 -2.48,-0.75 0,-0.412 0.861,-0.75 1.913,-0.75 6.411,0 11.975,-7.474 15.33,-20.59 1.939,-7.583 3.404,-17.806 2.783,-19.424 -0.43,-1.121 -0.877,-0.994 -3.694,1.049 -2.782,2.018 -3.7,2.285 -6.956,2.03 -2.062,-0.161 -4.341,-0.561 -5.063,-0.887 -1.186,-0.536 -1.312,-0.051 -1.312,5.032 0,4.421 0.252,5.723 1.177,6.078 1.8,0.691 1.048,3.784 -0.99,4.074 -0.928,0.132 -1.688,-0.121 -1.688,-0.563 0,-0.441 0.507,-0.802 1.126,-0.802 1.493,0 1.44,-1.219 -0.08,-1.802 -1.023,-0.392 -1.136,-1.391 -0.756,-6.643 0.486,-6.7 0.502,-7.165 0.472,-13.308 -0.011,-2.269 0.12,-4.8 0.29,-5.625 1.141,-5.508 2.316,-9.181 3.3,-10.319 1.294,-1.494 0.599,-2.808 -0.764,-1.445 -1.327,1.327 -1.874,1.089 -2.271,-0.988 -0.197,-1.031 -0.068,-1.875 0.288,-1.875 0.355,0 0.646,0.36 0.646,0.8 0,0.46 0.64,0.598 1.504,0.324 2.141,-0.68 2.804,1.606 1.25,4.314 -0.69,1.201 -1.254,2.854 -1.254,3.673 0,0.819 -0.313,2.074 -0.696,2.789 -0.383,0.715 -0.906,3.477 -1.162,6.139 l -0.467,4.839 1.423,-3.94 c 1.884,-5.217 3.53,-6.937 6.639,-6.937 2.075,0 2.892,0.535 4.762,3.116 1.241,1.714 2.607,4.414 3.034,6.001 0.427,1.587 1.137,2.885 1.578,2.885 0.455,0 0.584,-0.567 0.297,-1.313 -0.277,-0.722 -1.012,-3.338 -1.634,-5.813 -0.622,-2.475 -1.467,-5.682 -1.877,-7.126 -0.41,-1.444 -1.55,-5.76 -2.532,-9.592 -2.588,-10.094 -7.21,-17.452 -12.863,-20.477 -1.843,-0.987 -2.067,-0.895 -4.399,1.803 -5.084,5.881 -9.907,20.715 -11.263,34.642 -0.12,1.237 -0.576,3.769 -1.012,5.626 -1.008,4.285 -1.036,6.215 -0.081,5.625 0.413,-0.255 0.75,-1.275 0.75,-2.266 0,-2.668 2.815,-9.71 4.487,-11.222 0.94,-0.852 2.081,-1.159 3.232,-0.87 1.637,0.411 2.671,1.922 4.949,7.232 0.696,1.625 0.787,1.351 0.677,-2.045 -0.071,-2.156 0.105,-4.153 0.39,-4.438 1.019,-1.019 0.547,-6.096 -0.608,-6.54 -0.619,-0.237 -1.125,-0.989 -1.125,-1.672 0,-1.017 0.202,-1.073 1.125,-0.307 0.619,0.514 1.149,0.64 1.178,0.28 0.029,-0.36 0.327,0.02 0.663,0.845 0.607,1.496 0.368,12.72 -0.408,19.128 -0.225,1.856 -0.541,5.401 -0.702,7.876 -0.26,3.986 -1.15,8.188 -2.462,11.626 -0.276,0.722 -0.532,0.369 -0.716,-0.983 -0.158,-1.159 0.059,-2.524 0.481,-3.033 0.422,-0.508 1.005,-3.244 1.296,-6.079 l 0.528,-5.155 -1.784,1.25 c -1.159,0.812 -3.285,1.249 -6.074,1.249 -3.584,0 -4.484,-0.275 -5.459,-1.667 l -1.168,-1.667 0.024,1.854 c 0.054,4.323 2.225,19.401 3.29,22.857 1.298,4.212 7.068,12.013 9.809,13.261 1.697,0.774 3.206,2.881 2.043,2.854 -0.296,-0.006 -1.606,-0.696 -2.909,-1.532 z m -2.808,-37.399 c 4.514,-0.179 5.855,-6.179 1.495,-6.684 -2.962,-0.343 -5.474,0.402 -7.212,2.14 -2.85,2.85 -1.549,5.193 2.644,4.761 0.825,-0.085 2.208,-0.183 3.073,-0.217 z m -2.698,-3.438 c 0,-0.687 0.363,-1.129 0.806,-0.981 0.444,0.148 0.807,0.589 0.807,0.981 0,0.392 -0.363,0.834 -0.807,0.982 -0.443,0.147 -0.806,-0.294 -0.806,-0.982 z m 24.417,-1.247 2.75,-1.623 -1.752,-1.322 c -1.853,-1.398 -4.912,-1.354 -9.475,0.137 -2.72,0.888 -2.751,0.944 -1.662,2.979 1.101,2.056 6.519,1.965 10.139,-0.171 z m -5.144,-0.358 c -0.599,-0.599 0.078,-1.77 1.024,-1.77 0.388,0 0.706,0.506 0.706,1.125 0,1.16 -0.885,1.49 -1.73,0.645 z M 242.99,379.15 c 0.8,-1.19 2.046,-2.435 2.769,-2.766 0.975,-0.447 1.12,-0.894 0.56,-1.728 -0.623,-0.93 -1.272,-0.538 -3.729,2.25 -1.636,1.857 -2.981,3.038 -2.989,2.625 -0.019,-1.063 -1.465,1.305 -1.479,2.422 -0.019,1.517 3.217,-0.345 4.868,-2.803 z m 5.239,0.744 c -0.259,-0.419 -0.842,-0.532 -1.296,-0.252 -0.532,0.329 -0.655,0.065 -0.347,-0.738 0.653,-1.703 -0.45,-1.571 -2.1,0.252 -1.334,1.475 -1.31,1.501 1.429,1.501 1.696,0 2.601,-0.299 2.314,-0.763 z m 10.611,-3.98 c 0.907,-2.342 1.352,-4.259 0.988,-4.259 -0.806,0 -1.956,2.078 -3.374,6.097 -1.703,4.829 0.445,3.173 2.386,-1.838 z m 3.765,-0.482 c 1.325,-3.011 1.426,-3.744 0.562,-4.075 -1.028,-0.395 -2.752,2.716 -3.784,6.827 -0.785,3.126 1.489,1.184 3.222,-2.752 z m 5.475,2.91 c -0.46,-0.86 -1.02,-1.381 -1.244,-1.157 -0.618,0.618 0.372,2.722 1.281,2.722 0.555,0 0.544,-0.48 -0.037,-1.565 z m -2.665,-1.293 c 0.639,-1.236 0.834,-2.521 0.47,-3.109 -0.458,-0.741 -0.933,-0.397 -1.82,1.319 -0.661,1.278 -1.201,2.677 -1.201,3.11 0,1.526 1.474,0.763 2.551,-1.32 z m -21.597,-4.432 c -0.614,-0.609 -4.197,3.355 -4.203,4.65 -0.002,0.404 1.076,-0.344 2.395,-1.664 1.32,-1.32 2.133,-2.663 1.808,-2.986 z m 70.93,45.732 c -5.23,-5.304 -7.26,-9.106 -9.51,-17.815 -0.959,-3.713 -2.775,-10.716 -4.036,-15.562 -2.131,-8.191 -2.24,-9.23 -1.547,-14.754 1.697,-13.531 5.242,-25.572 9.149,-31.071 2.23,-3.138 7.233,-6.496 9.679,-6.496 1.176,0 2.138,0.337 2.138,0.75 0,0.412 -0.759,0.751 -1.688,0.753 -2.118,0.002 -6.125,2.412 -8.453,5.083 -2.872,3.295 -6.089,11.933 -7.742,20.792 -2.725,14.602 -2.562,17.223 0.874,14.005 3.319,-3.109 9.291,-4.098 12.247,-2.027 1.499,1.05 1.595,0.971 2.034,-1.688 0.902,-5.458 0.575,-8.167 -1.122,-9.294 -1.187,-0.788 -1.464,-1.489 -1.075,-2.717 0.519,-1.634 3.425,-2.401 3.425,-0.904 0,0.412 -0.507,0.75 -1.125,0.75 -1.709,0 -1.344,1.583 0.474,2.059 1.522,0.398 1.573,0.696 1.031,6.118 -0.313,3.135 -0.52,8.062 -0.461,10.95 0.106,5.193 -1.827,14.935 -3.635,18.313 -1.001,1.87 -0.351,3.291 0.715,1.565 0.843,-1.364 1.253,-0.952 1.866,1.876 0.415,1.918 0.341,2.079 -0.502,1.097 -0.544,-0.634 -1.58,-1.031 -2.303,-0.882 -1.854,0.38 -2.389,-1.635 -1.094,-4.115 1.476,-2.826 3.546,-11.501 3.483,-14.602 l -0.05,-2.502 -1.001,3.208 c -1.938,6.206 -5.172,8.78 -8.676,6.904 -1.911,-1.022 -5.137,-6.112 -5.719,-9.024 -0.381,-1.904 -1.756,-3.949 -1.756,-2.612 0,0.688 2.941,12.521 3.735,15.026 0.392,1.238 1.374,5.03 2.181,8.427 0.808,3.397 2.254,7.748 3.213,9.669 2.318,4.642 6.762,9.597 9.697,10.813 2.277,0.943 2.458,0.882 4.388,-1.483 1.108,-1.356 3.56,-6.057 5.45,-10.446 3.248,-7.541 4.467,-12.63 5.477,-22.862 0.197,-1.998 0.866,-5.591 1.486,-7.985 1.325,-5.112 1.337,-5.26 0.44,-5.26 -0.378,0 -1.033,1.603 -1.456,3.563 -1.549,7.19 -4.105,11.438 -6.881,11.438 -1.982,0 -4.37,-2.794 -4.927,-5.765 -0.83,-4.424 -2.035,-3.829 -1.65,0.815 0.195,2.345 0.083,4.432 -0.248,4.636 -0.834,0.516 0.141,4.965 1.354,6.178 1.185,1.185 1.269,2.129 0.244,2.763 -0.412,0.254 -0.75,-0.053 -0.75,-0.683 0,-0.71 -0.427,-0.982 -1.125,-0.714 -1.41,0.541 -1.437,-1.376 -0.269,-19.606 0.523,-8.168 1.266,-14.302 1.88,-15.527 0.558,-1.114 1.014,-2.718 1.014,-3.563 0,-0.846 0.338,-1.538 0.751,-1.538 1.089,0 0.87,3.072 -0.376,5.251 -0.589,1.031 -1.083,3.868 -1.098,6.305 -0.026,4.244 0.031,4.377 1.345,3.187 0.934,-0.844 2.717,-1.241 5.583,-1.241 3.498,0 4.423,0.286 5.458,1.688 1.182,1.601 1.221,1.326 0.756,-5.375 -0.595,-8.582 -2.178,-17.184 -3.787,-20.573 -1.509,-3.18 -8.429,-10.994 -9.736,-10.994 -0.542,0 -1.18,-0.507 -1.417,-1.126 -0.581,-1.513 -0.18,-1.429 3.123,0.657 4.699,2.966 9.09,9.388 10.69,15.635 2.117,8.262 3.751,23.696 2.908,27.451 -0.386,1.717 -1.026,5.234 -1.422,7.818 -2.824,18.417 -2.991,19.091 -6.643,26.9 -4.033,8.623 -6.995,12.676 -9.262,12.676 -0.825,0 -3.397,-1.931 -5.746,-4.313 z M 310.89,384.22 c 1.555,-3.425 1.839,-5.064 0.879,-5.064 -0.886,0 -4.001,6.731 -3.494,7.55 0.731,1.184 1.114,0.819 2.615,-2.486 z m 3.255,-0.423 c 1.472,-2.924 2.216,-6.378 1.244,-5.777 -0.773,0.478 -2.294,3.672 -3.385,7.109 -0.731,2.303 0.786,1.359 2.141,-1.332 z m 16.583,-0.103 c 1.645,-3.182 1.415,-3.474 -0.731,-0.924 -2.022,2.403 -2.29,3.137 -1.144,3.137 0.402,0 1.246,-0.995 1.875,-2.213 z m -22.56,-1.35 c 1.071,-2.105 1.088,-2.437 0.122,-2.437 -1.426,0 -2.925,2.755 -2.336,4.291 0.53,1.381 0.599,1.323 2.214,-1.854 z m 24.299,-3.187 c 0.498,0 0.906,-0.886 0.906,-1.968 0,-1.76 -0.136,-1.858 -1.293,-0.937 -3.046,2.425 -6.886,6.916 -6.478,7.575 0.243,0.394 1.683,-0.496 3.2,-1.977 1.517,-1.481 3.166,-2.693 3.665,-2.693 z m -27.583,0.008 c -1.396,-0.863 -1.835,-0.425 -1.208,1.209 0.385,1.003 0.69,1.085 1.399,0.376 0.709,-0.709 0.667,-1.055 -0.191,-1.585 z m 21.866,0.999 c 1.919,-1.736 1.719,-2.271 -0.878,-2.344 -1.238,-0.036 -2.251,0.24 -2.251,0.612 0,0.372 0.507,0.482 1.126,0.245 0.618,-0.238 1.125,-0.058 1.125,0.398 0,0.457 -0.338,0.831 -0.75,0.831 -0.413,0 -0.751,0.337 -0.751,0.75 0,1.09 0.818,0.922 2.379,-0.492 z m -14.201,-2.651 c 1.637,-0.491 3.149,-1.339 3.358,-1.885 1.241,-3.232 -5.627,-4.372 -10.012,-1.662 -2.908,1.797 -2.995,2.043 -1.213,3.395 1.646,1.25 4.048,1.296 7.867,0.152 z m -3.522,-2.056 c -0.513,-0.829 0.67,-1.724 1.363,-1.032 0.713,0.713 0.58,1.73 -0.226,1.73 -0.388,0 -0.9,-0.314 -1.137,-0.698 z m 22.845,-0.765 c 1.032,-0.721 1.982,-2.205 2.113,-3.299 0.231,-1.933 0.125,-1.989 -3.771,-1.989 -4.672,0 -7.343,1.503 -7.343,4.131 0,3.4 4.892,4.029 9.001,1.157 z m -3.75,-1.912 c 0,-0.619 0.337,-1.125 0.75,-1.125 0.413,0 0.75,0.506 0.75,1.125 0,0.618 -0.337,1.125 -0.75,1.125 -0.413,0 -0.75,-0.507 -0.75,-1.125 z m -8.251,43.977 c 0,-0.409 -0.76,-0.875 -1.688,-1.038 -1.531,-0.268 -1.56,-0.352 -0.317,-0.905 1.604,-0.713 4.23,1.31 2.827,2.177 -0.452,0.279 -0.822,0.174 -0.822,-0.234 z m -69.009,-3.65 c -1.031,-0.192 -2.105,-0.718 -2.385,-1.17 -0.701,-1.129 0.69,-3.528 2.047,-3.528 0.61,0 1.752,-0.402 2.538,-0.892 1.121,-0.7 1.685,-0.68 2.615,0.091 0.652,0.542 1.186,1.391 1.186,1.887 0,0.886 -3.158,4.263 -3.799,4.063 -0.179,-0.057 -1.17,-0.259 -2.202,-0.451 z m 4.501,-3.948 c 0,-0.412 -0.591,-0.745 -1.313,-0.738 -1.122,0.008 -1.149,0.117 -0.187,0.738 1.415,0.915 1.5,0.915 1.5,0 z m -9.564,2.46 c -1.185,-0.423 -1.239,-3.21 -0.062,-3.21 0.481,0 0.653,0.222 0.381,0.494 -0.271,0.271 -0.111,0.954 0.357,1.518 0.975,1.175 0.688,1.685 -0.676,1.198 z m 14.345,-2.647 c 0.232,-0.722 0.095,-1.313 -0.304,-1.313 -0.4,0 -0.727,-0.338 -0.727,-0.75 0,-0.413 0.507,-0.75 1.125,-0.75 1.313,0 1.449,1.394 0.293,3 -0.683,0.95 -0.743,0.921 -0.387,-0.187 z m 54.191,-1.139 c -0.908,-1.755 -0.916,-2.292 -0.055,-3.47 0.56,-0.766 1.5,-1.208 2.088,-0.982 0.588,0.225 1.441,0.04 1.894,-0.413 0.598,-0.599 1.239,-0.448 2.341,0.549 1.8,1.629 1.929,3.316 0.407,5.311 -0.967,1.268 -1.217,1.311 -1.932,0.331 -0.619,-0.848 -0.915,-0.894 -1.202,-0.187 -0.65,1.602 -2.418,1.033 -3.541,-1.139 z m 3.286,-0.843 c 0,-0.32 -0.507,-0.581 -1.126,-0.581 -1.175,0 -1.464,0.661 -0.645,1.48 0.56,0.56 1.771,-0.054 1.771,-0.899 z m 3,0.294 c 0,-0.619 -0.496,-1.125 -1.102,-1.125 -0.671,0 -0.932,0.44 -0.669,1.125 0.237,0.619 0.733,1.125 1.101,1.125 0.369,0 0.67,-0.506 0.67,-1.125 z m -10.876,1.125 c -0.612,-0.99 0.285,-2.394 1.177,-1.843 0.911,0.563 0.905,2.593 -0.009,2.593 -0.388,0 -0.914,-0.337 -1.169,-0.75 z m 16.72,-3.727 c -0.189,-1.287 -0.072,-2.507 0.26,-2.712 0.917,-0.567 1.695,3.44 0.835,4.3 -0.502,0.503 -0.865,-0.025 -1.095,-1.588 z m -77.103,-2.693 c 0,-0.643 0.338,-0.961 0.75,-0.706 0.413,0.255 0.75,0.781 0.75,1.17 0,0.388 -0.337,0.705 -0.75,0.705 -0.412,0 -0.75,-0.526 -0.75,-1.169 z m 69.759,-4.831 c 0,-0.413 0.337,-0.75 0.75,-0.75 0.412,0 0.75,0.337 0.75,0.75 0,0.412 -0.338,0.75 -0.75,0.75 -0.413,0 -0.75,-0.338 -0.75,-0.75 z m -77.489,-1.98 c -0.951,-0.95 0.208,-1.514 2.439,-1.187 1.251,0.184 2.09,0.634 1.864,1 -0.474,0.767 -3.589,0.901 -4.303,0.187 z m 65.237,-2.271 c -1.038,-1.038 -0.432,-1.529 1.444,-1.17 1.42,0.271 1.673,0.543 0.938,1.009 -1.227,0.778 -1.731,0.812 -2.382,0.161 z m -45.971,-0.853 c 0.66,-1.068 4.334,-1.629 4,-0.611 -0.151,0.461 -1.213,0.949 -2.359,1.084 -1.193,0.14 -1.895,-0.062 -1.641,-0.473 z m 67.224,-2.317 c 0,-0.691 1.776,-1.58 3.153,-1.58 0.473,0 0.413,0.443 -0.153,1.125 -1.019,1.228 -3,1.528 -3,0.455 z m -87.761,-19.425 c 0,-0.782 1.621,-2.407 2.4,-2.407 1.105,0 0.616,1.13 -0.9,2.076 -0.825,0.516 -1.5,0.664 -1.5,0.331 z m 66.008,-3.128 c 0,-0.88 3.604,-1.926 4.286,-1.244 0.629,0.629 0.204,0.917 -2.223,1.499 -1.205,0.289 -2.063,0.183 -2.063,-0.255 z m -44.255,-0.826 c 0,-0.387 0.675,-0.703 1.5,-0.703 0.825,0 1.5,0.265 1.5,0.59 0,0.325 -0.675,0.642 -1.5,0.704 -0.825,0.062 -1.5,-0.204 -1.5,-0.591 z m 63.987,-2.516 c 0.149,-0.447 1.058,-0.813 2.021,-0.813 0.963,0 1.872,0.366 2.021,0.813 0.155,0.465 -0.709,0.813 -2.021,0.813 -1.312,0 -2.176,-0.348 -2.021,-0.813 z m -74.864,-2.688 c 0.255,-0.412 0.613,-0.75 0.795,-0.75 0.182,0 0.33,0.338 0.33,0.75 0,0.413 -0.357,0.75 -0.794,0.75 -0.437,0 -0.586,-0.337 -0.331,-0.75 z m 69.831,-4.383 c -0.259,-0.42 -0.106,-0.99 0.341,-1.266 1.153,-0.713 1.897,0.264 0.934,1.226 -0.538,0.539 -0.958,0.552 -1.275,0.04 z m -77.328,-1.612 c -0.253,-0.409 -0.151,-1.295 0.226,-1.968 0.571,-1.022 0.747,-0.899 1.061,0.744 0.372,1.943 -0.393,2.671 -1.287,1.224 z m 6.966,-0.277 c -1.745,-1.326 -0.745,-5.342 1.339,-5.382 0.795,-0.014 1.866,-0.289 2.381,-0.607 1.245,-0.769 2.378,0.008 3.212,2.201 0.997,2.622 0.138,4.263 -1.956,3.737 -0.95,-0.238 -1.937,-0.094 -2.193,0.32 -0.605,0.979 -1.218,0.92 -2.783,-0.269 z m 5.902,-2.974 c 0.095,-0.095 -0.132,-0.668 -0.506,-1.273 -0.574,-0.929 -0.851,-0.867 -1.781,0.396 -1.019,1.385 -1.139,1.399 -1.609,0.189 -0.552,-1.426 -1.85,-1.076 -1.85,0.499 0,0.683 0.84,0.885 2.786,0.67 1.532,-0.169 2.864,-0.385 2.96,-0.481 z m 3.734,-0.88 c -0.263,-0.686 -10e-4,-1.125 0.67,-1.125 0.606,0 1.102,0.506 1.102,1.125 0,0.619 -0.302,1.125 -0.67,1.125 -0.369,0 -0.864,-0.506 -1.102,-1.125 z m 50.195,0.443 c -0.535,-0.866 0.283,-3.068 1.14,-3.068 0.355,0 0.439,0.54 0.185,1.2 -0.253,0.661 0.011,1.5 0.586,1.864 0.846,0.536 0.804,0.665 -0.221,0.675 -0.698,0.005 -1.459,-0.296 -1.69,-0.671 z m 4.873,-1.145 c -0.659,-0.795 -0.679,-1.48 -0.074,-2.608 0.952,-1.78 3.356,-3.245 4.101,-2.5 0.283,0.283 1.255,0.524 2.162,0.537 2.532,0.034 2.326,3.682 -0.228,4.024 -1.031,0.138 -2.196,0.56 -2.587,0.937 -1.034,0.996 -2.35,0.844 -3.374,-0.39 z m 2.758,-0.876 c -0.25,-0.25 -0.897,-0.276 -1.438,-0.06 -0.598,0.24 -0.421,0.417 0.453,0.453 0.791,0.033 1.234,-0.144 0.985,-0.393 z m 7.119,-1.061 c -0.522,-0.836 -0.599,-1.594 -0.188,-1.848 0.384,-0.237 1.053,0.233 1.487,1.045 1.03,1.924 -0.145,2.651 -1.299,0.803 z m -74.166,-5.645 c -0.244,-0.636 -0.234,-1.368 0.024,-1.625 0.257,-0.257 0.467,-0.074 0.467,0.408 0,0.481 0.864,0.875 1.92,0.875 1.089,0 1.719,0.324 1.456,0.75 -0.719,1.163 -3.371,0.884 -3.867,-0.408 z" />
<path
   style="opacity:1;fill:#000000"
   id="path3770"
   d="m 245.775,424.35 c -4.368,-4.286 6.646,4.96 0.86,0.8 l -0.426,-0.386 z m 6.447,0.8 c 3.537,-0.455 -0.741,1.244 0,0 z m 3.627,-0.983 c 1.222,-0.812 5.259,-3.665 2.31,-0.755 -0.142,0.733 -5.017,2.327 -2.31,0.755 z m 61.74,-3.337 c -2.417,-1.264 -7.352,-7.391 -6.481,-7.579 2.783,3.139 6.104,9.1 11.061,7.198 1.807,-1.962 3.865,-2.279 1.211,0.244 -1.894,2.473 -3.686,2.016 -5.791,0.137 z m -76.919,-2.314 c -1.917,-2.073 -2.069,-4.245 0.203,-0.852 1.556,1.767 2.909,4.991 0.281,1.478 z m 77.701,-2.605 c -4.007,-0.733 1.453,-1.129 2.625,0 0.879,1.484 -2.247,-0.031 -2.625,0 z m 9.024,-2.625 c 1.21,-4.695 2.572,-1.432 0,0 z m -78.283,-0.875 c -1.564,-2.623 1.201,-5.243 0.759,-0.949 0.944,1.302 1.325,2.032 -0.759,0.949 z m 5.196,-0.438 c 0.736,-2.251 -6.281,-1.393 -1.868,-2.532 2.629,1.121 5.059,-0.567 0.907,-1.161 1.395,-1.675 5.551,1.281 1.989,3.13 0.059,0.002 -1.483,1.844 -1.028,0.563 z m 53.9,-2.883 c -1.578,-2.556 -0.453,-3.304 0.64,-0.295 1.012,1.971 1.601,4.507 -0.64,0.295 z m 21.465,-1.055 c 1.194,-2.48 2.153,-6.508 3.664,-8.015 -0.48,2.521 -3.132,9.521 -3.958,8.83 0,0 0.294,-0.815 0.294,-0.815 z m -19.553,-0.419 c 1.573,-1.542 1.556,2.496 0,0 z m 4.208,-0.385 c -0.548,-2.915 2.129,-5.109 1.842,-2.322 2.172,-2.155 4.819,-1.776 1.103,0.36 -3.049,-0.344 -1.986,1.889 -2.477,2.902 z m 6.293,-1.821 c 1.824,-2.651 0.755,2.356 0,0 z m -67.884,-4.501 c 2.063,-2.359 0.208,2.513 0,0 z m -4.875,-1.456 c 1.593,-3.689 0.884,2.162 0,0 z m 66.508,-0.544 c -1.691,-2.678 1.307,-5.031 0.62,-0.833 -0.134,0.33 0.313,2.336 -0.62,0.833 z m -60.507,-1 c -1.773,-2.633 3.651,2.23 0,0 z m 65.633,-0.75 c 2.062,-2.359 0.208,2.512 0,0 z m 13.936,-1.188 c 0.803,-2.843 0.385,3.351 0,0 z m -90.781,-1.038 c -0.459,-1.568 5.732,0.07 0.966,0.301 0,0 -0.966,-0.301 -0.966,-0.301 z m 78.832,-0.525 c -2.623,-3.223 2.788,0.312 0.835,0.721 z m -72.133,-4 c 0.049,-4.062 -0.487,-8.15 -1.134,-10.924 -4.015,-0.978 1.735,-1.839 1.765,1.305 1.366,3.25 0.287,7.574 -0.494,10.55 0,0 -0.137,-0.931 -0.137,-0.931 z m 12.014,1.456 c 1.405,-0.08 5.705,-2.491 2.134,0.348 -0.508,0.449 -2.152,0.802 -2.134,-0.348 z m 46.365,0.282 c 3.537,-0.455 -0.741,1.244 0,0 z m -5.051,-1.426 c 0.803,-2.842 0.386,3.352 0,0 z m 31.563,-0.312 c 0.77,-4.547 0.334,4.264 0,0 z m -18.025,0 c 0.409,-3.431 1.378,-6.762 2.135,-10.126 -0.347,3.6 -0.328,7.597 -2.068,10.715 z m -76.043,-0.529 c 2.788,-0.563 5.149,0.564 1.045,0.318 -0.218,0.014 -2.291,-0.082 -1.045,-0.318 z m 88.699,-0.141 c 3.445,-4.536 1.57,1.901 0,0 z m -92.637,-0.83 c 0.131,-2.69 3.341,2.719 0,0 z m 9.377,0.455 c 3.377,-2.827 1.682,1.338 0,0 z m 25.621,-1.205 c 0.77,-4.547 0.335,4.264 0,0 z m -37.076,0.296 c -1.239,-2.113 3.529,-3.019 3.924,-5.317 1.475,-0.189 6.495,-3.139 2.387,-0.19 -2.723,1.419 -3.258,5.199 -6.311,5.507 z m 72.376,-1.794 c -3.658,-2.621 -2.83,-9.474 -6.895,-10.592 -1.437,-2.001 1.414,-7.882 0.769,-2.092 0.874,4.13 8.113,-4.462 7.871,-1.6 -2.976,0.663 -7.175,5.124 -1.947,5.998 6.175,-0.827 -5.291,5.125 0.569,6.958 0.932,-1.815 4.394,-8.064 2.103,-2.446 -2.012,1.783 -1.423,6.664 1.311,3.336 0.676,-1.41 2.555,-4.933 1.314,-1.109 -1.918,5.094 2.933,-0.619 3.74,-1.969 -0.656,4.459 -5.261,6.776 -8.835,3.516 z m -0.914,-6.396 c -0.96,-3.059 -4.643,-2.723 -1.939,0.661 0.623,1.408 2.182,0.779 1.939,-0.661 z m 14.252,6.518 c 0.342,-2.959 3.533,-1.067 0.657,0.707 -0.395,1.799 -0.977,-0.644 -0.657,-0.707 z m 15.143,-1.625 c -0.525,-2.623 1.726,-8.302 1.158,-2.553 0.012,1.938 -1.37,7.787 -1.158,2.553 z m -78.922,0.999 c -2.643,-1.063 -3.534,-4.367 -1.468,-5.268 0.168,-1.373 2.253,1.318 3.56,-1.083 5.958,-0.919 -1.104,1.747 -2.905,2.573 -2.103,4.118 10.873,4.994 3.354,4.788 -0.891,-0.204 -1.768,-0.511 -2.541,-1.01 z m 70.012,-0.715 c -3.211,-2.08 2.685,-0.258 3.046,-3.275 1.3,-1.826 4.054,-3.534 1.294,-0.524 -2.051,0.88 -4.097,6.622 -0.46,3.603 1.201,-1.243 4.593,-6.996 2.532,-2.12 -0.964,2.741 -3.939,5.362 -6.412,2.316 z m -84.243,0.466 c 2.02,-3.023 1.768,2.921 0,0 z m 21.003,0.463 c 3.134,-2.35 3.801,0.954 0,0 z m 4.815,-2.537 c 4.713,-4.337 -9.398,-3.206 -2.9,-5.327 1.095,-1.785 2.465,-5.475 3.79,-1.48 1.463,2.594 -3.573,-2.061 -2.314,1.977 1.776,2.573 3.789,-1.207 3.665,2.671 2.461,-0.144 2.69,3.846 1.507,2.915 0.59,-4.092 -6.092,1.701 -4.641,0.297 0.298,-0.351 0.595,-0.702 0.893,-1.053 z m 53.116,-3.176 c -0.081,-3.797 1.117,1.186 0.101,1.468 l -0.074,-0.553 z m 2.626,0.782 c -0.147,-5.761 1.917,1.88 0.345,1.297 -0.115,-0.432 -0.23,-0.864 -0.345,-1.297 z m -7.556,-1.72 c 1.12,-5.596 -2.396,0.523 -3.274,0.977 -0.853,-3.729 7.226,-5.147 1.869,-8.331 -1.494,-0.623 -6.795,-0.613 -2.468,-1.421 2.919,1.042 6.701,3.543 6.37,-1.681 0.163,-0.945 0.755,-6.146 0.546,-3.608 -0.458,3.683 -0.124,7.532 -1.036,11.088 -1.263,0.172 -2.12,8.734 -2.007,2.976 z m 10.991,0.334 c 4.79,-4.538 -3.489,-1.886 -5.656,-2.497 -1.72,-3.56 1.751,-9.672 5.578,-8.567 -5.216,0.933 -5.44,9.317 0.753,7.66 7.08,-1.633 -5.896,9.302 -0.675,3.404 z m -82.182,0.857 c 4.033,-0.485 1.275,1.116 0,0 z m -0.945,-2.496 c 1.777,-2.276 3.536,-2.209 0.771,0.274 -2.324,2.53 -3.517,2.461 -0.771,-0.274 z m 89.703,0.305 c 0.803,-2.843 0.385,3.351 0,0 z m -91.638,-2.296 c 2.18,-1.706 3.124,-6.011 -0.482,-2.867 -4.14,4.265 1.771,-4.866 4.436,-1.046 3.204,3.129 -1.956,0.043 -2.941,3.366 -0.762,0.773 -3.424,3.869 -2.993,3.203 0.66,-0.885 1.32,-1.771 1.98,-2.656 z m 20.38,0.483 c 1.811,-4.279 1.554,-0.047 -0.592,1.388 l 0.125,-0.383 c 0,0 0.467,-1.005 0.467,-1.005 z m -26.167,-1.125 c 0.272,-3.874 0.8,3.29 0.018,0.801 z m 20.106,-0.331 c 1.593,-3.689 0.884,2.162 0,0 z m 75.989,-0.127 c 3.561,-0.985 1.177,-6.17 2.324,-6.579 1.214,2.58 3.221,2.592 2.535,-0.465 1.501,0.962 0.805,9.558 -0.091,3.86 -2.715,0.744 -1.262,4.682 -3.822,3.187 -0.229,0.86 -2.95,1.24 -0.947,-0.003 z m -81.655,-2.233 c -0.094,-5.816 2.9,2.643 0,0 z m 13.488,-0.726 c 1.949,-4.723 1.399,3.439 0,0 z m 64.187,0.836 c 1.695,-4.034 1.879,2.651 0,0 z m -74.2,-1.232 c 0.803,-2.843 0.386,3.351 0,0 z m 3.691,0.58 c 0.389,-2.907 7.897,-2.914 3.328,-0.543 -0.769,-2.163 -2.407,1.601 -3.328,0.543 z m -20.943,-2.83 c 0.803,-2.843 0.385,3.351 0,0 z m 4.066,-0.313 c 5.339,-3.197 0.826,2.307 0,0 z m 80.824,-1.875 c 0.501,-5.337 0.418,5.88 10e-4,0 z m 8.625,0.628 c 4.033,-0.484 1.275,1.117 0,0 z m -23.441,-1.003 c 1.968,-1.551 4.925,-0.246 0.951,0.499 -0.179,0.388 -1.743,0.198 -0.951,-0.499 z m -56.953,-1.929 c -1.567,-2.021 -1.329,-2.944 0.759,-1.071 2.007,0.402 1.05,3.938 -0.759,1.071 z m 12.885,0.682 c 4.033,-0.485 1.275,1.117 0,0 z m 73.901,-2.503 c 0.506,-6.873 0.419,6.63 0,0 z m -35.34,-0.751 c 0.77,-4.548 0.334,4.265 0,0 z m 17.134,0.271 c -0.806,-2.145 -3.538,-4.175 0.341,-2.016 1.063,0.742 -0.072,4.961 -0.341,2.016 z m 7.501,0.935 c 1.352,-2.145 5.688,0.983 1.261,0.264 l -0.655,-0.06 z m -3.448,-1.956 c 0.079,-2.34 2.701,-9.058 1.408,-3.056 -0.056,0.332 -1.569,4.945 -1.408,3.056 z m -6.292,-3.938 c 0.663,-2.943 5.166,0.374 0.986,-0.081 -0.384,0.321 -1.134,1.871 -0.986,0.081 z m 19.637,-1.687 c 0.272,-3.874 0.801,3.29 0.017,0.8 l -0.02,-0.8 z m -96.885,0 c 1.21,-4.696 2.572,-1.433 0,0 z m 63.853,-1.126 c 0.77,-4.546 0.334,4.265 0,0 z m -51.845,-1.089 c -1.693,-2.265 0.311,-3.864 0.781,-0.376 0.53,1.314 0.365,1.951 -0.781,0.376 z m 3.102,-0.656 c 1.16,-1.889 5.633,-1.472 2.494,-0.026 -2.72,-0.328 2.11,2.727 -2.232,1.39 -0.835,0.059 -0.596,-1.051 -0.262,-1.364 z m 80.997,-1.255 c 0.77,-4.547 0.334,4.264 0,0 z m -74.753,-1.5 c 0.131,-2.69 3.341,2.72 0,0 z m 57.383,0.116 c 2.75,-1.11 0.308,-3.652 -1.32,-1.678 0.257,3.631 -1.745,-2.332 1.117,-2.958 1.86,-1.99 4.372,1.201 0.64,0.237 -2.372,1.536 3.268,1.44 3.711,2.643 -0.245,-2.182 0.704,-4.6 1.263,-1.119 -0.26,2.119 -4.395,2.377 -5.411,2.875 z m -13.449,-1.241 c -0.06,-1.599 3.368,-6.125 1.488,-1.913 -0.353,0.372 -0.895,2.237 -1.488,1.913 z m -46.591,-8.064 c -4.231,-5.456 3.568,2.346 2.517,2.937 -0.898,-0.926 -1.71,-1.932 -2.517,-2.937 z m 72.114,-2.132 c -1.283,-3.254 -7.554,-6.312 -7.313,-8.081 4.769,2.793 8.411,7.476 10.827,12.407 -1.149,-0.556 -2.446,-3.052 -3.514,-4.326 z m -78.833,3.026 c 1.574,-1.543 1.557,2.496 0,0 z m 56.257,0.088 c 1.593,-3.689 0.884,2.162 0,0 z m -60.114,-2.736 c 0.585,-1.81 4.698,-5.546 4.848,-2.606 -2.953,0.149 -4.535,2.994 -6.384,4.923 0.512,-0.773 1.024,-1.545 1.536,-2.317 z m 65.1,-3.121 c 0.671,-1.933 7.775,-4.574 3.142,-1.738 -1.552,0.706 -6.752,5.301 -3.142,1.738 z m 7.016,-3.188 c 1.824,-2.651 0.755,2.356 0,0 z" />
</g>
</svg>