<?xml version="1.0" encoding="UTF-8" standalone="no"?>
<svg
   xmlns:dc="http://purl.org/dc/elements/1.1/"
   xmlns:cc="http://creativecommons.org/ns#"
   xmlns:rdf="http://www.w3.org/1999/02/22-rdf-syntax-ns#"
   xmlns:svg="http://www.w3.org/2000/svg"
   xmlns="http://www.w3.org/2000/svg"
   style="stroke-linejoin:round"
   height="97.416733"
   width="104.30212"
   id="svg3729"
   version="1.1"
   viewBox="0 0 104.30211 97.416733">
  <metadata
     id="metadata3735">
    <rdf:RDF>
      <cc:Work
         rdf:about="">
        <dc:format>image/svg+xml</dc:format>
        <dc:type
           rdf:resource="http://purl.org/dc/dcmitype/StillImage" />
        <dc:title></dc:title>
      </cc:Work>
    </rdf:RDF>
  </metadata>
  <defs
     id="defs3733" />
  <path
     id="path3725"
     d="m 13.655585,95.916736 c -2.3,-1.5 -7.5000003,-7.7 -9.2000003,-11 -2.1,-4.1 -5.40000001,-29.4 -4.20000001,-32.3 0.3,-0.7 0.80000001,-3.3 1.10000001,-5.8 2.3,-16.4 3.1,-20.3 6.2,-27.3 3.5000003,-8 6.8000003,-13.4000001 8.9000003,-14.0000001 4.4,-1.4 13.8,10.7000001 16,20.8000001 0.6,2.6 2.3,9.3 3.8,14.9 1.6,5.5 2.8,10.6 2.8,11.2 -0.1,1.1 -1.6,11 -3.2,19.8 -0.9,5.2 -4.8,14.6 -7.2,17.4 -3,3.4 -6.4,5.6 -9.1,5.6 -1.3,0 -2.4,-0.4 -2.4,-0.8 0,-0.4 0.8,-0.7 1.9,-0.7 6.4,0 12,-7.5 15.3,-20.6 1.9,-7.6 3.4,-17.8 2.8,-19.5 -0.4,-1.1 -0.9,-0.9 -3.7,1.1 -2.8,2 -3.7,2.3 -7,2 -2,-0.1 -4.3,-0.5 -5,-0.9 -1.2,-0.5 -1.3,0 -1.3,5.1 0,4.4 0.2,5.7 1.1,6.1 1.8,0.6 1.1,3.7 -0.9,4 -1,0.2 -1.7,-0.1 -1.7,-0.5 0,-0.5 0.5,-0.8 1.1,-0.8 1.5,0 1.4,-1.3 -0.1,-1.8 -1,-0.4 -1.1,-1.4 -0.7,-6.7 0.4,-6.7 0.5,-7.2 0.4,-13.3 0,-2.3 0.1,-4.8 0.3,-5.6 1.2,-5.5 2.3,-9.2 3.3,-10.3 1.3,-1.5 0.6,-2.8 -0.7,-1.5 -1.4,1.3 -1.9,1.1 -2.3,-1 -0.2,-1 -0.1,-1.8 0.3,-1.8 0.3,0 0.6,0.3 0.6,0.8 0,0.4 0.7,0.6 1.5,0.3 2.2,-0.7 2.8,1.6 1.3,4.3 -0.7,1.2 -1.3,2.8 -1.3,3.7 0,0.8 -0.3,2 -0.7,2.8 -0.4,0.7 -0.9,3.4 -1.1,6.1 l -0.5,4.8 1.4,-3.9 c 1.9,-5.2 3.5,-6.9 6.7,-6.9 2,0 2.8,0.5 4.7,3.1 1.3,1.7 2.6,4.4 3,6 0.5,1.6 1.2,2.9 1.6,2.9 0.5,0 0.6,-0.6 0.3,-1.4 -0.3,-0.7 -1,-3.3 -1.6,-5.8 -0.6,-2.4 -1.5,-5.7 -1.9,-7.1 -0.4,-1.4 -1.5,-5.8 -2.5,-9.6 -2.6,-10.1 -7.2,-17.4 -12.9,-20.5000001 -1.8,-1 -2.1,-0.9 -4.4,1.8 C 9.3555847,15.016736 4.5555847,29.916736 3.2555847,43.816736 c -0.2,1.2 -0.6,3.8 -1.1,5.6 -1,4.3 -1,6.2 0,5.6 0.4,-0.2 0.7,-1.2 0.7,-2.2 0,-2.7 2.8,-9.7 4.5,-11.3 0.9,-0.8 2.1,-1.1 3.2000003,-0.8 1.7,0.4 2.7,1.9 5,7.2 0.7,1.6 0.8,1.4 0.7,-2 -0.1,-2.2 0.1,-4.2 0.3,-4.5 1.1,-1 0.6,-6.1 -0.6,-6.5 -0.6,-0.3 -1.1,-1 -1.1,-1.7 0,-1 0.2,-1.1 1.1,-0.3 0.7,0.5 1.2,0.6 1.2,0.3 0,-0.4 0.3,0 0.7,0.8 0.6,1.5 0.3,12.7 -0.4,19.2 -0.3,1.8 -0.6,5.4 -0.7,7.8 -0.3,4 -1.2,8.2 -2.5,11.7 -0.3,0.7 -0.5,0.3 -0.7,-1 -0.2,-1.2 0,-2.5 0.5,-3.1 0.4,-0.5 1,-3.2 1.3,-6 l 0.5,-5.2 -1.8,1.3 c -1.1,0.8 -3.3,1.2 -6.1000003,1.2 -3.5,0 -4.4,-0.3 -5.4,-1.7 l -1.2,-1.6 v 1.8 c 0.1,4.4 2.3,19.4 3.3,22.9 1.3,4.2 7.1000003,12 9.8000003,13.2 1.7,0.8 3.2,2.9 2.1,2.9 -0.3,0 -1.6,-0.7 -2.9,-1.5 z m -2.8,-37.4 c 4.5,-0.2 5.8,-6.2 1.5,-6.7 -3.0000003,-0.4 -5.5000003,0.4 -7.3000003,2.1 -2.8,2.9 -1.5,5.2 2.7,4.8 0.8,-0.1 2.2,-0.2 3.1000003,-0.2 z m -2.7000003,-3.5 c 0,-0.7 0.3,-1.1 0.8,-0.9 0.4,0.1 0.8,0.5 0.8,0.9 0,0.4 -0.4,0.9 -0.8,1 -0.5,0.2 -0.8,-0.3 -0.8,-1 z m 24.4000003,-1.2 2.7,-1.6 -1.7,-1.4 c -1.9,-1.4 -4.9,-1.3 -9.5,0.2 -2.7,0.9 -2.7,0.9 -1.7,3 1.1,2 6.6,1.9 10.2,-0.2 z m -5.2,-0.4 c -0.6,-0.6 0.1,-1.7 1.1,-1.7 0.3,0 0.7,0.5 0.7,1.1 0,1.1 -0.9,1.5 -1.8,0.6 z m -18.1000003,-4.7 c 0.8000003,-1.2 2.0000003,-2.5 2.8000003,-2.8 0.9,-0.5 1.1,-0.9 0.5,-1.7 -0.6,-1 -1.3,-0.6 -3.7000003,2.2 -1.6,1.9 -3,3 -3,2.6 0,-1 -1.5,1.3 -1.5,2.5 0,1.5 3.2,-0.4 4.9,-2.8 z m 5.2000003,0.7 c -0.2,-0.4 -0.8,-0.5 -1.3,-0.3 -0.5,0.4 -0.6,0.1 -0.3,-0.7 0.6,-1.7 -0.5,-1.6 -2.1,0.3 -1.3000003,1.4 -1.3000003,1.5 1.4,1.5 1.7,0 2.6,-0.3 2.3,-0.8 z m 10.6,-4 c 0.9,-2.3 1.4,-4.2 1,-4.2 -0.8,0 -1.9,2 -3.3,6.1 -1.7,4.8 0.4,3.1 2.3,-1.9 z m 3.8,-0.5 c 1.3,-3 1.4,-3.7 0.6,-4 -1.1,-0.4 -2.8,2.7 -3.8,6.8 -0.8,3.1 1.5,1.2 3.2,-2.8 z m 5.5,2.9 c -0.5,-0.8 -1,-1.3 -1.3,-1.1 -0.6,0.6 0.4,2.7 1.3,2.7 0.6,0 0.6,-0.5 0,-1.6 z m -2.7,-1.3 c 0.7,-1.2 0.8,-2.5 0.5,-3.1 -0.5,-0.7 -0.9,-0.4 -1.8,1.4 -0.7,1.2 -1.2,2.6 -1.2,3.1 0,1.5 1.4,0.7 2.5,-1.4 z m -21.6,-4.4 c -0.6000003,-0.6 -4.2000003,3.4 -4.2000003,4.7 0,0.4 1.1,-0.4 2.4,-1.7 1.3,-1.3 2.1000003,-2.7 1.8000003,-3 z m 70.9,45.7 c -5.2,-5.3 -7.2,-9.1 -9.5,-17.8 -0.9,-3.7 -2.7,-10.7 -4,-15.5 -2.1,-8.2 -2.2,-9.3 -1.5,-14.8 1.7,-13.5 5.2,-25.6 9.1,-31.1000001 2.2,-3.1 7.2,-6.4 9.7,-6.4 1.2,0 2.1,0.3 2.1,0.7 0,0.4 -0.7,0.8 -1.7,0.8 -2.1,0 -6.1,2.4 -8.4,5 -2.9,3.3000001 -6.1,12.0000001 -7.8,20.8000001 -2.7,14.6 -2.5,17.3 0.9,14 3.3,-3.1 9.3,-4.1 12.3,-2 1.5,1.1 1.6,1 2,-1.7 0.9,-5.4 0.6,-8.1 -1.1,-9.3 -1.2,-0.8 -1.5,-1.5 -1.1,-2.7 0.5,-1.6 3.4,-2.4 3.4,-0.9 0,0.4 -0.5,0.8 -1.1,0.8 -1.7,0 -1.3,1.5 0.5,2 1.5,0.4 1.5,0.7 1,6.1 -0.3,3.2 -0.5,8.1 -0.5,11 0.1,5.2 -1.8,14.9 -3.6,18.3 -1,1.9 -0.3,3.3 0.7,1.6 0.9,-1.4 1.3,-1 1.9,1.8 0.4,2 0.3,2.1 -0.5,1.1 -0.6,-0.6 -1.6,-1 -2.3,-0.8 -1.9,0.3 -2.4,-1.7 -1.1,-4.2 1.5,-2.8 3.5,-11.5 3.5,-14.6 l -0.1,-2.5 -1,3.2 c -1.9,6.2 -5.2,8.8 -8.7,6.9 -1.9,-1 -5.1,-6.1 -5.7,-9 -0.4,-1.9 -1.7,-3.9 -1.7,-2.6 0,0.7 2.9,12.5 3.7,15 0.4,1.3 1.4,5.1 2.2,8.5 0.8,3.4 2.2,7.7 3.2,9.6 2.3,4.7 6.8,9.6 9.7,10.8 2.3,1 2.5,0.9 4.4,-1.4 1.1,-1.4 3.5,-6.1 5.4,-10.5 3.3,-7.5 4.5,-12.6 5.499995,-22.8 0.2,-2 0.9,-5.6 1.5,-8 1.3,-5.1 1.3,-5.3 0.4,-5.3 -0.3,0 -1,1.6 -1.4,3.6 -1.599995,7.2 -4.099995,11.4 -6.899995,11.4 -2,0 -4.4,-2.8 -4.9,-5.8 -0.9,-4.4 -2.1,-3.8 -1.7,0.9 0.2,2.3 0.1,4.4 -0.2,4.6 -0.9,0.5 0.1,5 1.3,6.2 1.2,1.2 1.3,2.1 0.3,2.7 -0.4,0.3 -0.8,0 -0.8,-0.6 0,-0.8 -0.4,-1 -1.1,-0.8 -1.4,0.6 -1.4,-1.3 -0.3,-19.6 0.6,-8.1 1.3,-14.3 1.9,-15.5 0.6,-1.1 1,-2.7 1,-3.6 0,-0.8 0.4,-1.5 0.8,-1.5 1.1,0 0.8,3.1 -0.4,5.3 -0.6,1 -1.1,3.8 -1.1,6.3 0,4.2 0,4.3 1.3,3.1 1,-0.8 2.8,-1.2 5.6,-1.2 3.5,0 4.399995,0.3 5.499995,1.7 1.2,1.6 1.2,1.3 0.7,-5.4 -0.6,-8.6 -2.1,-17.2 -3.699995,-20.6 -1.6,-3.1 -8.5,-10.9000001 -9.8,-10.9000001 -0.5,0 -1.2,-0.6 -1.4,-1.2 -0.6,-1.5 -0.2,-1.4 3.1,0.7 4.7,2.9 9.1,9.4000001 10.699995,15.6000001 2.1,8.3 3.8,23.7 2.9,27.5 -0.4,1.7 -1,5.2 -1.4,7.8 -2.799995,18.4 -2.999995,19.1 -6.599995,26.9 -4.1,8.6 -7,12.7 -9.3,12.7 -0.8,0 -3.4,-2 -5.8,-4.4 z m -3.8,-34.1 c 1.5,-3.4 1.8,-5 0.9,-5 -0.9,0 -4,6.7 -3.5,7.5 0.7,1.2 1.1,0.8 2.6,-2.5 z m 3.2,-0.4 c 1.5,-2.9 2.3,-6.4 1.3,-5.8 -0.8,0.5 -2.3,3.7 -3.4,7.1 -0.7,2.3 0.8,1.4 2.1,-1.3 z m 16.6,-0.1 c 1.7,-3.2 1.4,-3.5 -0.7,-0.9 -2,2.4 -2.3,3.1 -1.1,3.1 0.4,0 1.2,-1 1.8,-2.2 z m -22.5,-1.4 c 1,-2.1 1.1,-2.4 0.1,-2.4 -1.4,0 -2.9,2.8 -2.3,4.3 0.5,1.4 0.6,1.3 2.2,-1.9 z m 24.3,-3.1 c 0.5,0 0.9,-0.9 0.9,-2 0,-1.8 -0.2,-1.9 -1.3,-0.9 -3.1,2.4 -6.9,6.9 -6.5,7.5 0.2,0.4 1.7,-0.5 3.2,-1.9 1.5,-1.5 3.2,-2.7 3.7,-2.7 z m -27.6,0 c -1.4,-0.9 -1.9,-0.5 -1.2,1.2 0.4,1 0.7,1.1 1.4,0.4 0.7,-0.8 0.6,-1.1 -0.2,-1.6 z m 21.9,1 c 1.9,-1.8 1.7,-2.3 -0.9,-2.4 -1.3,0 -2.3,0.3 -2.3,0.6 0,0.4 0.5,0.5 1.1,0.3 0.7,-0.3 1.2,-0.1 1.2,0.4 0,0.4 -0.4,0.8 -0.8,0.8 -0.4,0 -0.7,0.3 -0.7,0.8 0,1 0.8,0.9 2.4,-0.5 z m -14.3,-2.7 c 1.7,-0.5 3.2,-1.3 3.4,-1.9 1.2,-3.2 -5.6,-4.3 -10,-1.6 -2.9,1.8 -3,2 -1.2,3.4 1.6,1.2 4,1.3 7.8,0.1 z m -3.5,-2 c -0.5,-0.9 0.7,-1.8 1.4,-1.1 0.7,0.7 0.6,1.8 -0.2,1.8 -0.4,0 -0.9,-0.4 -1.2,-0.7 z m 22.9,-0.8 c 1,-0.7 1.999995,-2.2 2.099995,-3.3 0.2,-1.9 0.1,-2 -3.799995,-2 -4.7,0 -7.3,1.5 -7.3,4.1 0,3.4 4.9,4.1 9,1.2 z m -3.8,-1.9 c 0,-0.6 0.4,-1.1 0.8,-1.1 0.4,0 0.7,0.5 0.7,1.1 0,0.6 -0.3,1.1 -0.7,1.1 -0.4,0 -0.8,-0.5 -0.8,-1.1 z m -8.2,44 c 0,-0.5 -0.8,-0.9 -1.7,-1.1 -1.5,-0.2 -1.6,-0.3 -0.3,-0.9 1.6,-0.7 4.2,1.3 2.8,2.2 -0.5,0.3 -0.8,0.2 -0.8,-0.2 z m -69,-3.7 c -1.1,-0.2 -2.1,-0.7 -2.4,-1.2 -0.7,-1.1 0.7,-3.5 2,-3.5 0.6,0 1.8,-0.4 2.6,-0.9 1.1,-0.7 1.6,-0.7 2.6,0.1 0.6,0.6 1.2,1.4 1.2,1.9 0,0.9 -3.2,4.3 -3.8,4.1 -0.2,-0.1 -1.2,-0.3 -2.2,-0.5 z m 4.5,-3.9 c 0,-0.5 -0.6,-0.8 -1.3,-0.8 -1.2,0 -1.2,0.1 -0.2,0.8 1.4,0.9 1.5,0.9 1.5,0 z m -9.6,2.4 c -1.2,-0.4 -1.2,-3.2 -0.1,-3.2 0.5,0 0.7,0.2 0.4,0.5 -0.3,0.3 -0.1,1 0.4,1.5 1,1.2 0.7,1.7 -0.7,1.2 z m 14.3,-2.6 c 0.3,-0.7 0.1,-1.3 -0.3,-1.3 -0.4,0 -0.7,-0.4 -0.7,-0.8 0,-0.4 0.5,-0.7 1.1,-0.7 1.4,0 1.5,1.4 0.3,3 -0.7,0.9 -0.7,0.9 -0.4,-0.2 z m 54.2,-1.2 c -0.9,-1.7 -0.9,-2.3 0,-3.4 0.5,-0.8 1.5,-1.2 2.1,-1 0.6,0.2 1.4,0 1.9,-0.4 0.6,-0.6 1.2,-0.5 2.3,0.5 1.8,1.6 1.9,3.3 0.4,5.3 -1,1.3 -1.2,1.3 -1.9,0.4 -0.6,-0.9 -0.9,-0.9 -1.2,-0.2 -0.7,1.6 -2.4,1 -3.6,-1.2 z m 3.3,-0.8 c 0,-0.3 -0.5,-0.6 -1.1,-0.6 -1.2,0 -1.5,0.7 -0.6,1.5 0.5,0.5 1.7,-0.1 1.7,-0.9 z m 3,0.3 c 0,-0.6 -0.5,-1.1 -1.1,-1.1 -0.7,0 -0.9,0.4 -0.6,1.1 0.2,0.6 0.7,1.1 1.1,1.1 0.3,0 0.6,-0.5 0.6,-1.1 z m -10.9,1.1 c -0.6,-1 0.3,-2.4 1.2,-1.8 0.9,0.5 0.9,2.6 0,2.6 -0.4,0 -0.9,-0.4 -1.2,-0.8 z m 16.8,-3.7 c -0.2,-1.3 -0.1,-2.5 0.2,-2.7 0.9,-0.6 1.7,3.4 0.9,4.3 -0.5,0.5 -0.9,-0.1 -1.1,-1.6 z m -77.1,-2.7 c 0,-0.7 0.3,-1 0.7,-0.7 0.4,0.2 0.8,0.8 0.8,1.2 0,0.3 -0.4,0.7 -0.8,0.7 -0.4,0 -0.7,-0.6 -0.7,-1.2 z m 69.7,-4.8 c 0,-0.5 0.4,-0.8 0.8,-0.8 0.4,0 0.7,0.3 0.7,0.8 0,0.4 -0.3,0.7 -0.7,0.7 -0.4,0 -0.8,-0.3 -0.8,-0.7 z m -77.5000003,-2 c -0.9,-1 0.2,-1.5 2.5000003,-1.2 1.2,0.2 2.1,0.6 1.8,1 -0.4,0.8 -3.6000003,0.9 -4.3000003,0.2 z m 65.3000003,-2.3 c -1.1,-1 -0.5,-1.5 1.4,-1.2 1.4,0.3 1.7,0.6 1,1 -1.3,0.8 -1.8,0.9 -2.4,0.2 z m -46,-0.8 c 0.7,-1.1 4.3,-1.7 4,-0.7 -0.2,0.5 -1.2,1 -2.4,1.1 -1.2,0.2 -1.9,0 -1.6,-0.4 z m 67.2,-2.4 c 0,-0.7 1.8,-1.5 3.2,-1.5 0.4,0 0.4,0.4 -0.2,1.1 -1,1.2 -3,1.5 -3,0.4 z m -87.7000003,-19.4 c 0,-0.8 1.6,-2.4 2.4,-2.4 1.1000003,0 0.6,1.1 -0.9,2.1 -0.9,0.5 -1.5,0.6 -1.5,0.3 z m 66.0000003,-3.1 c 0,-0.9 3.6,-1.9 4.3,-1.3 0.6,0.7 0.2,1 -2.3,1.5 -1.2,0.3 -2,0.2 -2,-0.2 z m -44.3,-0.8 c 0,-0.4 0.7,-0.7 1.5,-0.7 0.8,0 1.5,0.2 1.5,0.5 0,0.4 -0.7,0.7 -1.5,0.7 -0.8,0.1 -1.5,-0.2 -1.5,-0.5 z m 64,-2.6 c 0.2,-0.4 1.1,-0.8 2,-0.8 1,0 1.9,0.4 2,0.8 0.2,0.5 -0.7,0.9 -2,0.9 -1.3,0 -2.2,-0.4 -2,-0.9 z m -74.9,-2.6 c 0.3,-0.5 0.7,-0.8 0.8,-0.8 0.2,0 0.4,0.3 0.4,0.8 0,0.4 -0.4,0.7 -0.8,0.7 -0.5,0 -0.6,-0.3 -0.4,-0.7 z m 69.9,-4.4 c -0.3,-0.4 -0.1,-1 0.3,-1.3 1.2,-0.7 1.9,0.3 0.9,1.2 -0.5,0.6 -0.9,0.6 -1.2,0.1 z m -77.4000003,-1.6 c -0.2,-0.4 -0.1,-1.3 0.3000003,-2 0.5,-1 0.7,-0.9 1,0.7 0.4,2 -0.4,2.7 -1.3000003,1.3 z m 7.0000003,-0.3 c -1.7,-1.3 -0.7,-5.4 1.3,-5.4 0.8,0 1.9,-0.3 2.4,-0.6 1.3,-0.8 2.4,0 3.2,2.2 1,2.6 0.2,4.3 -1.9,3.7 -1,-0.2 -2,-0.1 -2.2,0.4 -0.6,0.9 -1.2,0.9 -2.8,-0.3 z m 5.9,-3 c 0.1,-0.1 -0.1,-0.7 -0.5,-1.3 -0.6,-0.9 -0.8,-0.8 -1.8,0.4 -1,1.4 -1.1,1.4 -1.6,0.2 -0.5,-1.4 -1.8,-1.1 -1.8,0.5 0,0.7 0.8,0.9 2.7,0.7 1.6,-0.2 2.9,-0.4 3,-0.5 z m 3.7,-0.9 c -0.2,-0.7 0,-1.1 0.7,-1.1 0.6,0 1.1,0.5 1.1,1.1 0,0.6 -0.3,1.2 -0.7,1.2 -0.3,0 -0.8,-0.6 -1.1,-1.2 z m 50.2,0.5 c -0.5,-0.9 0.3,-3.1 1.2,-3.1 0.3,0 0.4,0.5 0.2,1.2 -0.3,0.7 0,1.5 0.5,1.9 0.9,0.5 0.9,0.6 -0.2,0.6 -0.7,0 -1.4,-0.3 -1.7,-0.6 z m 4.9,-1.2 c -0.6,-0.8 -0.7,-1.5 -0.1,-2.6 1,-1.8 3.4,-3.2 4.1,-2.5 0.3,0.3 1.3,0.5 2.2,0.6 2.5,0 2.3,3.6 -0.2,4 -1.1,0.1 -2.2,0.5 -2.6,0.9 -1,1 -2.4,0.9 -3.4,-0.4 z m 2.8,-0.8 c -0.3,-0.3 -0.9,-0.3 -1.5,-0.1 -0.6,0.2 -0.4,0.4 0.5,0.4 0.8,0.1 1.2,-0.1 1,-0.3 z m 7.1,-1.1 c -0.5,-0.8 -0.6,-1.6 -0.2,-1.9 0.4,-0.2 1.1,0.3 1.5,1.1 1,1.9 -0.2,2.6 -1.3,0.8 z m -74.2,-5.7 c -0.2,-0.6 -0.2,-1.3 0,-1.6 0.3,-0.2 0.5,-0.1 0.5,0.4 0,0.5 0.9,0.9 1.9,0.9 1.1,0 1.8,0.3 1.5,0.8 -0.7,1.1 -3.4,0.8 -3.9,-0.5 z" />
  <path
     id="path3727"
     d="m 12.055585,93.916736 c -4.4000003,-4.3 6.6,4.9 0.8,0.8 l -0.4,-0.4 z m 6.4,0.8 c 3.6,-0.5 -0.7,1.2 0,0 z m 3.6,-1 c 1.3,-0.8 5.3,-3.7 2.4,-0.8 -0.2,0.7 -5.1,2.3 -2.4,0.8 z m 61.8,-3.4 c -2.4,-1.2 -7.4,-7.4 -6.5,-7.5 2.8,3.1 6.1,9.1 11.1,7.1 1.8,-1.9 3.8,-2.2 1.2,0.3 -1.9,2.5 -3.7,2 -5.8,0.1 z m -76.9000003,-2.3 c -1.9,-2.1 -2.1,-4.2 0.2,-0.8 1.5,1.7 2.9000003,5 0.3,1.4 z m 77.7000003,-2.6 c -4,-0.7 1.4,-1.1 2.6,0 0.9,1.5 -2.3,0 -2.6,0 z m 9,-2.6 c 1.2,-4.7 2.6,-1.4 0,0 z m -78.3,-0.9 c -1.6,-2.6 1.2,-5.2 0.8,-0.9 0.9,1.3 1.3,2 -0.8,0.9 z m 5.2,-0.4 c 0.7,-2.3 -6.3,-1.4 -1.9,-2.6 2.7,1.2 5.1,-0.5 0.9,-1.1 1.4,-1.7 5.6,1.3 2,3.1 0.1,0 -1.4,1.9 -1,0.6 z m 53.9,-2.9 c -1.6,-2.6 -0.4,-3.3 0.6,-0.3 1.1,2 1.6,4.5 -0.6,0.3 z m 21.5,-1.1 c 1.2,-2.4 2.1,-6.5 3.6,-8 -0.4,2.5 -3.1,9.5 -3.9,8.9 0,0 0.3,-0.9 0.3,-0.9 z m -19.6,-0.4 c 1.6,-1.5 1.6,2.5 0,0 z m 4.2,-0.4 c -0.5,-2.9 2.2,-5.1 1.9,-2.3 2.1,-2.1 4.8,-1.8 1.1,0.4 -3.1,-0.4 -2,1.9 -2.5,2.9 z m 6.3,-1.8 c 1.8,-2.6 0.8,2.4 0,0 z m -67.9,-4.5 c 2.1,-2.3 0.2,2.5 0,0 z m -4.8,-1.4 c 1.6,-3.7 0.8,2.1 0,0 z m 66.5,-0.6 c -1.7,-2.7 1.3,-5 0.6,-0.8 -0.1,0.3 0.3,2.3 -0.6,0.8 z m -60.5,-1 c -1.8,-2.6 3.6,2.2 0,0 z m 65.6,-0.7 c 2.1,-2.4 0.2,2.5 0,0 z m 13.9,-1.2 c 0.799995,-2.9 0.399995,3.3 0,0 z m -90.7000003,-1.1 c -0.5,-1.5 5.7000003,0.1 0.9,0.3 0,0 -0.9,-0.3 -0.9,-0.3 z m 78.8000003,-0.5 c -2.6,-3.2 2.8,0.3 0.8,0.7 z m -72.1,-4 c 0,-4.1 -0.5,-8.1 -1.2,-10.9 -4,-1 1.8,-1.9 1.8,1.3 1.3,3.2 0.3,7.6 -0.5,10.5 0,0 -0.1,-0.9 -0.1,-0.9 z m 12,1.5 c 1.4,-0.1 5.7,-2.5 2.1,0.3 -0.5,0.5 -2.2,0.8 -2.1,-0.3 z m 46.3,0.2 c 3.6,-0.4 -0.7,1.3 0,0 z m -5,-1.4 c 0.8,-2.8 0.4,3.4 0,0 z m 31.499995,-0.3 c 0.8,-4.5 0.4,4.3 0,0 z m -17.999995,0 c 0.4,-3.4 1.4,-6.8 2.2,-10.1 -0.4,3.6 -0.4,7.6 -2.1,10.7 z m -76.0000003,-0.5 c 2.8,-0.6 5.1000003,0.5 1,0.3 -0.2,0 -2.3,-0.1 -1,-0.3 z m 88.7000003,-0.2 c 3.4,-4.5 1.5,1.9 0,0 z m -92.7000003,-0.8 c 0.2,-2.7 3.4,2.7 0,0 z m 9.4000003,0.5 c 3.4,-2.9 1.7,1.3 0,0 z m 25.6,-1.2 c 0.8,-4.6 0.4,4.2 0,0 z m -37.00000031,0.3 c -1.3,-2.2 3.50000001,-3.1 3.90000001,-5.4 1.5,-0.2 6.5000003,-3.1 2.4,-0.2 -2.8,1.5 -3.3,5.2 -6.30000001,5.6 z m 72.30000031,-1.8 c -3.6,-2.7 -2.8,-9.5 -6.9,-10.6 -1.4,-2 1.5,-7.9 0.8,-2.1 0.9,4.1 8.1,-4.5 7.9,-1.6 -3,0.6 -7.2,5.1 -2,6 6.2,-0.9 -5.3,5.1 0.6,6.9 0.9,-1.8 4.4,-8 2.1,-2.4 -2,1.8 -1.4,6.7 1.3,3.3 0.7,-1.4 2.6,-4.9 1.3,-1.1 -1.9,5.1 3,-0.6 3.8,-2 -0.7,4.5 -5.3,6.8 -8.9,3.6 z m -0.9,-6.4 c -0.9,-3.1 -4.6,-2.8 -1.9,0.6 0.6,1.4 2.2,0.8 1.9,-0.6 z m 14.3,6.5 c 0.3,-3 3.5,-1.1 0.6,0.7 -0.4,1.8 -0.9,-0.7 -0.6,-0.7 z m 15.099995,-1.6 c -0.5,-2.7 1.7,-8.3 1.2,-2.6 0,1.9 -1.4,7.8 -1.2,2.6 z m -78.899995,1 c -2.7,-1.1 -3.5,-4.4 -1.5,-5.3 0.2,-1.4 2.3,1.3 3.6,-1.1 5.9,-0.9 -1.1,1.8 -2.9,2.6 -2.1,4.1 10.9,5 3.3,4.8 -0.9,-0.2 -1.7,-0.5 -2.5,-1 z m 70,-0.8 c -3.2,-2 2.7,-0.2 3.1,-3.2 1.3,-1.9 4,-3.6 1.2,-0.6 -2,0.9 -4.1,6.7 -0.4,3.6 1.2,-1.2 4.599995,-7 2.5,-2.1 -0.9,2.8 -3.9,5.4 -6.4,2.3 z m -84.2000003,0.5 c 2.0000003,-3 1.7,2.9 0,0 z m 21.0000003,0.5 c 3.1,-2.4 3.8,0.9 0,0 z m 4.8,-2.6 c 4.7,-4.3 -9.4,-3.2 -2.9,-5.3 1.1,-1.8 2.4,-5.5 3.8,-1.5 1.4,2.6 -3.6,-2 -2.3,2 1.7,2.6 3.7,-1.2 3.6,2.7 2.5,-0.2 2.7,3.8 1.5,2.9 0.6,-4.1 -6.1,1.7 -4.6,0.3 0.3,-0.4 0.6,-0.7 0.9,-1.1 z m 53.1,-3.1 c -0.1,-3.8 1.1,1.1 0.1,1.4 l -0.1,-0.5 z m 2.6,0.7 c -0.1,-5.7 1.9,1.9 0.4,1.3 -0.1,-0.4 -0.3,-0.8 -0.4,-1.3 z m -7.5,-1.7 c 1.1,-5.6 -2.4,0.5 -3.3,1 -0.9,-3.7 7.2,-5.2 1.9,-8.3 -1.5,-0.7 -6.8,-0.6 -2.5,-1.5 2.9,1.1 6.7,3.6 6.4,-1.6 0.1,-1 0.7,-6.2 0.5,-3.6 -0.4,3.6 -0.1,7.5 -1,11 -1.3,0.2 -2.1,8.8 -2,3 z m 11,0.4 c 4.7,-4.6 -3.5,-1.9 -5.7,-2.5 -1.7,-3.6 1.8,-9.7 5.6,-8.6 -5.2,0.9 -5.5,9.3 0.7,7.6 7.099995,-1.6 -5.9,9.4 -0.6,3.5 z m -82.2,0.8 c 4,-0.5 1.2,1.1 0,0 z m -1.0000003,-2.5 c 1.8000003,-2.3 3.6000003,-2.2 0.8000003,0.3 -2.3000003,2.5 -3.5000003,2.4 -0.8000003,-0.3 z m 89.7000003,0.3 c 0.799995,-2.8 0.399995,3.4 0,0 z m -91.6000003,-2.3 c 2.2000003,-1.7 3.1000003,-6 -0.5,-2.8 -4.1,4.2 1.8,-4.9 4.4000003,-1.1 3.3,3.1 -1.9,0.1 -2.9000003,3.4 -0.8,0.7 -3.4,3.8 -3,3.2 0.7,-0.9 1.3,-1.8 2,-2.7 z m 20.4000003,0.5 c 1.8,-4.3 1.5,0 -0.6,1.4 l 0.1,-0.4 c 0,0 0.5,-1 0.5,-1 z m -26.2000003,-1.1 c 0.3,-3.9 0.8,3.3 0,0.8 z m 20.1000003,-0.3 c 1.6,-3.7 0.9,2.1 0,0 z m 76,-0.2 c 3.599995,-1 1.2,-6.1 2.299995,-6.6 1.2,2.6 3.2,2.6 2.6,-0.4 1.5,0.9 0.8,9.5 -0.1,3.8 -2.7,0.8 -1.3,4.7 -3.899995,3.2 -0.2,0.9 -2.9,1.3 -0.9,0 z m -81.7,-2.2 c 0,-5.8 2.9,2.6 0,0 z m 13.5,-0.7 c 2,-4.8 1.4,3.4 0,0 z m 64.2,0.8 c 1.7,-4 1.9,2.7 0,0 z m -74.2,-1.2 c 0.8,-2.9 0.4,3.3 0,0 z m 3.7,0.5 c 0.4,-2.9 7.9,-2.9 3.3,-0.5 -0.7,-2.2 -2.4,1.6 -3.3,0.5 z m -20.9000003,-2.8 c 0.8,-2.8 0.4,3.4 0,0 z m 4,-0.3 c 5.4000003,-3.2 0.9,2.3 0,0 z m 80.9000003,-1.9 c 0.5,-5.3 0.4,5.9 0,0 z m 8.6,0.7 c 3.999995,-0.5 1.3,1.1 0,0 z m -23.5,-1 c 2,-1.6 5,-0.3 1,0.5 -0.2,0.3 -1.7,0.2 -1,-0.5 z m -56.9,-2 c -1.6,-2 -1.3,-2.9 0.8,-1 2,0.4 1,3.9 -0.8,1 z m 12.9,0.7 c 4,-0.5 1.3,1.1 0,0 z m 73.899995,-2.5 c 0.5,-6.9 0.4,6.6 0,0 z m -35.399995,-0.7 c 0.8,-4.6 0.4,4.2 0,0 z m 17.2,0.2 c -0.8,-2.1 -3.6,-4.1 0.3,-2 1.1,0.8 -0.1,5 -0.3,2 z m 7.5,1 c 1.3,-2.2 5.7,0.9 1.2,0.2 h -0.6 z m -3.5,-2 c 0.1,-2.3 2.7,-9.1 1.4,-3.1 0,0.4 -1.5,5 -1.4,3.1 z m -6.3,-3.9 c 0.7,-3 5.2,0.3 1,-0.1 -0.4,0.3 -1.1,1.9 -1,0.1 z m 19.699995,-1.7 c 0.2,-3.9 0.8,3.3 0,0.8 z m -96.8999953,0 c 1.2,-4.7 2.6,-1.5 0,0 z m 63.8000003,-1.1 c 0.8,-4.6 0.4,4.2 0,0 z m -51.8,-1.1 c -1.7,-2.3 0.3,-3.9 0.8,-0.4 0.5,1.3 0.3,1.9 -0.8,0.4 z m 3.1,-0.7 c 1.2,-1.9 5.6,-1.5 2.5,0 -2.7,-0.3 2.1,2.7 -2.2,1.4 -0.9,0 -0.6,-1.1 -0.3,-1.4 z m 80.999995,-1.2 c 0.8,-4.6 0.3,4.2 0,0 z m -74.799995,-1.5 c 0.2,-2.7 3.4,2.7 0,0 z m 57.4,0.1 c 2.8,-1.1 0.3,-3.7 -1.3,-1.7 0.3,3.6 -1.7,-2.3 1.1,-3 1.9,-2 4.4,1.2 0.7,0.3 -2.4,1.5 3.2,1.4 3.7,2.6 -0.3,-2.2 0.7,-4.6 1.2,-1.1 -0.2,2.1 -4.4,2.4 -5.4,2.9 z m -13.4,-1.3 c -0.1,-1.6 3.3,-6.1 1.5,-1.9 -0.4,0.4 -0.9,2.3 -1.5,1.9 z m -46.6,-8 c -4.2,-5.5000001 3.5,2.3 2.5,2.9 -0.9,-0.9 -1.7,-1.9 -2.5,-2.9 z m 72.1,-2.2000001 c -1.3,-3.2 -7.6,-6.3 -7.3,-8 4.8,2.7 8.4,7.4 10.8,12.4000001 -1.1,-0.6 -2.4,-3.1 -3.5,-4.4000001 z m -78.8,3.1000001 c 1.5,-1.6 1.5,2.5 0,0 z m 56.2,0 c 1.6,-3.6000001 0.9,2.2 0,0 z m -60.1,-2.7000001 c 0.6,-1.8 4.7,-5.5 4.9,-2.6 -3,0.2 -4.6,3 -6.4,4.9000001 0.5,-0.7 1,-1.5 1.5,-2.3000001 z m 65.1,-3.1 c 0.7,-1.9 7.8,-4.6 3.1,-1.7 -1.5,0.7 -6.7,5.3 -3.1,1.7 z m 7,-3.2 c 1.8,-2.6 0.8,2.4 0,0 z" />
</svg>
